<?xml version="1.0" encoding="utf-8"?>
<!-- Generator: Adobe Illustrator 22.0.1, SVG Export Plug-In . SVG Version: 6.00 Build 0)  -->
<svg version="1.1" xmlns="http://www.w3.org/2000/svg" xmlns:xlink="http://www.w3.org/1999/xlink" x="0px" y="0px"
	 viewBox="0 0 1920 1080" style="enable-background:new 0 0 1920 1080;" xml:space="preserve">
<style type="text/css">
	.st0{fill:#1E2B35;}
	.st1{fill:#ECEAD6;}
	.st2{fill:#D6D5C4;}
	.st3{opacity:0.3;}
	.st4{fill:#CCB6A4;}
	.st5{opacity:0.3;fill:#3C3F7A;}
	.st6{fill:#36386F;}
	.st7{fill:#303163;}
	.st8{fill:#22224F;}
	.st9{fill:#3E437F;}
	.st10{opacity:0.27;fill:#FF207B;}
	.st11{fill:#FF207B;}
	.st12{fill:#D6117B;}
	.st13{opacity:0.3;fill:#A0005C;}
	.st14{opacity:0.3;fill:#72EDFC;}
	.st15{fill:#25CFE0;}
	.st16{fill:#72EDFC;}
	.st17{fill:#3194A3;}
	.st18{filter:url(#Adobe_OpacityMaskFilter);}
	.st19{filter:url(#Adobe_OpacityMaskFilter_1_);}
	.st20{mask:url(#SVGID_1_);fill:url(#SVGID_2_);}
	.st21{fill:url(#SVGID_3_);}
	.st22{fill:#5BCBF5;}
	.st23{fill:#007BBD;}
	.st24{fill:#FFFFFF;}
	.st25{fill:#B7D1DE;}
	.st26{fill:#00AAD8;}
	.st27{fill:#EF4637;}
	.st28{fill:#DCDDDE;}
	.st29{fill:#EF6A51;}
	.st30{fill:#F5E000;}
	.st31{fill:#F0A529;}
	.st32{fill:#0087C9;}
</style>
<g id="bg">
	<rect class="st0" width="1920" height="1080"/>
</g>
<g id="moon">
	<g>
		
			<ellipse transform="matrix(0.2253 -0.9743 0.9743 0.2253 -213.1839 513.7353)" class="st1" cx="216.4" cy="390.9" rx="21.9" ry="21.9"/>
		<g>
			<path class="st2" d="M208,387c0,1.5-1.4,2.7-3.2,2.7s-3.2-1.2-3.2-2.7c0-1.5,1.4-2.7,3.2-2.7S208,385.5,208,387z"/>
			<path class="st2" d="M213.6,380.3c0,0.7-0.6,1.3-1.3,1.3c-0.7,0-1.3-0.6-1.3-1.3c0-0.7,0.6-1.3,1.3-1.3
				C213,378.9,213.6,379.5,213.6,380.3z"/>
			<path class="st2" d="M232.4,397.1c0,2-1.8,3.6-4,3.6c-2.2,0-4-1.6-4-3.6c0-2,1.8-3.6,4-3.6C230.6,393.5,232.4,395.1,232.4,397.1z
				"/>
			<ellipse class="st2" cx="226.6" cy="378.9" rx="1.1" ry="1.4"/>
			<circle class="st2" cx="217.8" cy="391.9" r="0.4"/>
			<path class="st2" d="M212.8,405.9c0,1-1.4,1.9-3,1.9s-3-0.8-3-1.9c0-1,1.4-1.9,3-1.9S212.8,404.8,212.8,405.9z"/>
			<path class="st2" d="M206.9,374.1c0,0.5-0.4,0.9-0.9,0.9c-0.5,0-0.9-0.4-0.9-0.9c0-0.5,0.4-0.9,0.9-0.9
				C206.5,373.2,206.9,373.6,206.9,374.1z"/>
		</g>
		<g>
			<g>
				<g class="st3">
					<path class="st4" d="M228.5,372.7c2.8,4,4.4,8.8,4.4,14c0,13.4-10.9,24.3-24.3,24.3c-0.4,0-0.7,0-1.1,0
						c2.7,1.2,5.7,1.9,8.8,1.9c12.1,0,21.9-9.8,21.9-21.9C238.3,383.3,234.4,376.6,228.5,372.7z"/>
				</g>
			</g>
		</g>
	</g>
</g>
<g id="Layer_8">
</g>
<g id="stars">
</g>
<g id="planets">
	<g>
		<g>
			
				<ellipse transform="matrix(0.8725 -0.4887 0.4887 0.8725 -280.82 158.4226)" class="st5" cx="163.1" cy="617.2" rx="30.8" ry="30.8"/>
			
				<ellipse transform="matrix(0.6614 -0.75 0.75 0.6614 -407.6922 331.2965)" class="st6" cx="163.1" cy="617.2" rx="28.6" ry="28.6"/>
			<g>
				
					<ellipse transform="matrix(0.9996 -2.904576e-02 2.904576e-02 0.9996 -17.3845 5.1638)" class="st7" cx="169.1" cy="601" rx="3.7" ry="4"/>
				<path class="st7" d="M161,612.6c-1.1,0-1.9-0.8-2-1.9c0-1.1,0.8-1.9,1.9-2c1.1,0,1.9,0.8,2,1.9
					C162.9,611.7,162.1,612.5,161,612.6z"/>
				<path class="st7" d="M167.8,628.2c-2.4,0.1-4.4-2.2-4.5-5.2c-0.1-2.9,1.8-5.4,4.2-5.4c2.4-0.1,4.4,2.2,4.5,5.2
					C172.1,625.7,170.2,628.1,167.8,628.2z"/>
				<path class="st7" d="M151.3,603.9c-1,0-1.9-0.8-1.9-1.8c0-1,0.8-1.9,1.8-1.9c1,0,1.9,0.8,1.9,1.8
					C153.1,603,152.3,603.8,151.3,603.9z"/>
				<path class="st7" d="M140.7,629.8c-1.8,0.1-3.3-2-3.4-4.7c-0.1-2.6,1.3-4.8,3.1-4.9c1.8-0.1,3.3,2,3.4,4.7
					C143.9,627.5,142.5,629.7,140.7,629.8z"/>
				<path class="st7" d="M162.3,645.2c-3.8,0.1-7-2.6-7.1-6.1s2.9-6.4,6.8-6.5c3.8-0.1,7,2.6,7.1,6.1S166.1,645.1,162.3,645.2z"/>
				
					<ellipse transform="matrix(0.9996 -2.911789e-02 2.911789e-02 0.9996 -17.9567 5.7124)" class="st7" cx="187.2" cy="619.4" rx="2.6" ry="2.9"/>
			</g>
			<g>
				<g>
					<g class="st3">
						<path class="st8" d="M179.6,593.8c3.5,5.3,5.5,11.6,5.3,18.4c-0.5,17.5-15,31.4-32.6,30.9c-0.5,0-1,0-1.4-0.1
							c3.5,1.6,7.4,2.6,11.5,2.7c15.8,0.4,28.9-12.1,29.3-27.8C192,608,187.1,599.1,179.6,593.8z"/>
					</g>
				</g>
			</g>
		</g>
		<path class="st9" d="M211.5,604.9c-1.9-3.7-10.2-4.8-22.1-3.6c0.5,0.8,0.9,1.4,1.2,2.4c7-0.7,11.8-0.2,12.8,1.7
			c2.1,4.1-14.2,13-36.4,20c-22.2,7-42,9.4-44.1,5.3c-1.1-2.1,2.5-5.4,9.7-9.2c-0.1-1.1-0.3-2.1-0.3-3
			c-11.7,6.1-17.7,12.2-15.5,16.3c3.4,6.5,27.3,5.1,53.5-3.2C196.4,623.3,214.9,611.4,211.5,604.9z"/>
	</g>
	<g>
		
			<ellipse transform="matrix(0.2442 -0.9697 0.9697 0.2442 -133.6161 1276.351)" class="st5" cx="752" cy="723.9" rx="38.4" ry="38.4"/>
		
			<ellipse transform="matrix(0.2262 -0.9741 0.9741 0.2262 -123.2116 1292.6901)" class="st6" cx="752" cy="723.9" rx="35.7" ry="35.7"/>
		<g>
			<g>
				<g>
					<path class="st7" d="M760,708.2L760,708.2c0,1.9,1.6,3.5,3.5,3.5h3.3c1.7,0,3,1.4,3,3l0,0c0,1.7-1.4,3-3,3h-9.3
						c-1.5,0-2.7,1.2-2.7,2.7l0,0c0,1.5,1.2,2.7,2.7,2.7H778c1.6,0,3,1.3,3,3l0,0c0,1.6-1.3,3-3,3h-6.8c-1.6,0-3,1.3-3,3l0,0
						c0,1.6,1.3,3,3,3h14.7c1.1-3.5,1.8-7.2,1.8-11.1c0-7-2-13.6-5.6-19.2h-18.6C761.5,704.7,760,706.3,760,708.2z"/>
				</g>
				<g>
					<path class="st7" d="M756.5,739.6L756.5,739.6c0-1.9-1.6-3.5-3.5-3.5h-20.2c-1.5,0-2.7-1.2-2.7-2.7v-0.8c0-1.5,1.2-2.7,2.7-2.7
						h10.7c1.5,0,2.7-1.2,2.7-2.7l0,0c0-1.5-1.2-2.7-2.7-2.7h-21.4c-1.5,0-2.7-1.2-2.7-2.7v-0.6c0-1.5,1.2-2.7,2.7-2.7h11.2
						c1.6,0,3-1.3,3-3l0,0c0-1.6-1.3-3-3-3h-15.3c-1.1,3.5-1.8,7.2-1.8,11.1c0,7,2,13.6,5.6,19.2h31.2
						C755,743,756.5,741.5,756.5,739.6z"/>
				</g>
				<g class="st3">
					<path class="st8" d="M773,695c4.3,6.6,6.6,14.6,6.3,23.1C778.3,740,759.9,757,738,756c-0.6,0-1.2-0.1-1.8-0.1
						c4.3,2.1,9.1,3.4,14.3,3.6c19.7,0.8,36.3-14.5,37.1-34.2C788.2,713,782.3,701.8,773,695z"/>
				</g>
			</g>
		</g>
	</g>
	<g>
		
			<ellipse transform="matrix(0.2398 -0.9708 0.9708 0.2398 -566.9011 785.8506)" class="st10" cx="218.3" cy="754.9" rx="31" ry="31"/>
		
			<ellipse transform="matrix(0.2397 -0.9709 0.9709 0.2397 -566.8986 785.9144)" class="st11" cx="218.3" cy="754.9" rx="28.2" ry="28.2"/>
		<path class="st12" d="M236.7,733.5c-4.9-4.2-11.3-6.8-18.4-6.8c-7,0-13.4,2.6-18.4,6.8H236.7z"/>
		<path class="st12" d="M202,777.9c4.6,3.3,10.2,5.2,16.3,5.2c6.1,0,11.7-1.9,16.3-5.2H202z"/>
		<g>
			<path class="st12" d="M220.5,742.5L220.5,742.5c0,1.5,1.2,2.7,2.7,2.7h5.2c1.3,0,2.4,1.1,2.4,2.4l0,0c0,1.3-1.1,2.4-2.4,2.4h-5.8
				c-1.2,0-2.1,0.9-2.1,2.1l0,0c0,1.2,0.9,2.1,2.1,2.1h17.9c1.3,0,2.3,1.1,2.3,2.3l0,0c0,1.3-1.1,2.3-2.3,2.3h-11.2
				c-1.3,0-2.3,1.1-2.3,2.3l0,0c0,1.3,1.1,2.3,2.3,2.3h15.9c0.9-2.8,1.4-5.7,1.4-8.8c0-5.6-1.6-10.8-4.4-15.1h-18.8
				C221.8,739.8,220.5,741,220.5,742.5z"/>
			<path class="st12" d="M208.5,767.3L208.5,767.3c0-1.5-1.2-2.7-2.7-2.7h-2.6c-1.2,0-2.1-0.9-2.1-2.1v-0.6c0-1.2,0.9-2.1,2.1-2.1
				h13c1.2,0,2.1-0.9,2.1-2.1v0c0-1.2-0.9-2.1-2.1-2.1h-21.4c-1.2,0-2.1-0.9-2.1-2.1v-0.5c0-1.2,0.9-2.1,2.1-2.1h8.9
				c1.3,0,2.3-1.1,2.3-2.3l0,0c0-1.3-1.1-2.3-2.3-2.3h-12.1c-0.9,2.8-1.4,5.7-1.4,8.8c0,5.6,1.6,10.8,4.4,15.1h11.3
				C207.3,770,208.5,768.8,208.5,767.3z"/>
			<path class="st13" d="M231.2,729.8c5.1,5.6,8.2,13,8.2,21.2c0,16.2-12.2,29.5-27.9,31.3c2.2,0.5,4.5,0.8,6.8,0.8
				c15.6,0,28.2-12.6,28.2-28.2C246.5,744,240.3,734.5,231.2,729.8z"/>
		</g>
	</g>
	<g>
		
			<ellipse transform="matrix(0.7071 -0.7071 0.7071 0.7071 54.7438 611.7345)" class="st14" cx="765.8" cy="239.8" rx="47.2" ry="47.2"/>
		<circle class="st15" cx="765.8" cy="239.8" r="43.8"/>
		<g>
			<g>
				<g>
					<path class="st16" d="M756,259L756,259c0-2.4-1.9-4.3-4.3-4.3h-4c-2.1,0-3.7-1.7-3.7-3.7l0,0c0-2.1,1.7-3.7,3.7-3.7h11.4
						c1.8,0,3.3-1.5,3.3-3.3l0,0c0-1.8-1.5-3.3-3.3-3.3h-25.2c-2,0-3.6-1.6-3.6-3.6l0,0c0-2,1.6-3.6,3.6-3.6h8.3
						c2,0,3.6-1.6,3.6-3.6l0,0c0-2-1.6-3.6-3.6-3.6h-18c-1.4,4.3-2.2,8.9-2.2,13.6c0,8.7,2.5,16.7,6.8,23.5h22.9
						C754.1,263.3,756,261.4,756,259z"/>
				</g>
				<g>
					<path class="st16" d="M760.2,220.5L760.2,220.5c0,2.4,1.9,4.3,4.3,4.3h24.8c1.8,0,3.3,1.5,3.3,3.3v1c0,1.8-1.5,3.3-3.3,3.3
						h-13.2c-1.8,0-3.3,1.5-3.3,3.3l0,0c0,1.8,1.5,3.3,3.3,3.3h26.3c1.8,0,3.3,1.5,3.3,3.3v0.8c0,1.8-1.5,3.3-3.3,3.3h-13.8
						c-2,0-3.6,1.6-3.6,3.6l0,0c0,2,1.6,3.6,3.6,3.6h18.8c1.4-4.3,2.2-8.9,2.2-13.6c0-8.7-2.5-16.7-6.8-23.5h-38.3
						C762.1,216.3,760.2,218.2,760.2,220.5z"/>
				</g>
				<g class="st3">
					<path class="st17" d="M790.1,203.3c5.6,7.9,8.9,17.6,8.9,28c0,26.8-21.8,48.6-48.6,48.6c-0.7,0-1.5,0-2.2-0.1
						c5.4,2.4,11.4,3.7,17.7,3.7c24.2,0,43.8-19.6,43.8-43.8C809.6,224.6,801.8,211.2,790.1,203.3z"/>
				</g>
			</g>
		</g>
	</g>
</g>
<g id="globe">
	<g>
		<defs>
			<filter id="Adobe_OpacityMaskFilter" filterUnits="userSpaceOnUse" x="328.7" y="334.3" width="273.5" height="273.5">
				<feFlood  style="flood-color:white;flood-opacity:1" result="back"/>
				<feBlend  in="SourceGraphic" in2="back" mode="normal"/>
			</filter>
		</defs>
		<mask maskUnits="userSpaceOnUse" x="328.7" y="334.3" width="273.5" height="273.5" id="SVGID_1_">
			<g class="st18">
				<defs>
					<filter id="Adobe_OpacityMaskFilter_1_" filterUnits="userSpaceOnUse" x="328.7" y="334.3" width="273.5" height="273.5">
						<feFlood  style="flood-color:white;flood-opacity:1" result="back"/>
						<feBlend  in="SourceGraphic" in2="back" mode="normal"/>
					</filter>
				</defs>
				<mask maskUnits="userSpaceOnUse" x="328.7" y="334.3" width="273.5" height="273.5" id="SVGID_1_">
					<g class="st19">
					</g>
				</mask>
				<radialGradient id="SVGID_2_" cx="465.4488" cy="471.0794" r="136.7745" gradientUnits="userSpaceOnUse">
					<stop  offset="0" style="stop-color:#FFFFFF"/>
					<stop  offset="0.1033" style="stop-color:#FAFAFA"/>
					<stop  offset="0.2269" style="stop-color:#EBEBEB"/>
					<stop  offset="0.3611" style="stop-color:#D3D3D3"/>
					<stop  offset="0.5026" style="stop-color:#B1B1B1"/>
					<stop  offset="0.65" style="stop-color:#868686"/>
					<stop  offset="0.8023" style="stop-color:#515151"/>
					<stop  offset="0.9558" style="stop-color:#131313"/>
					<stop  offset="1" style="stop-color:#000000"/>
				</radialGradient>
				<path class="st20" d="M570.1,383.1c48.6,57.8,41.1,144.1-16.7,192.7c-57.8,48.6-144.1,41.1-192.7-16.7
					c-48.6-57.8-41.1-144.1,16.7-192.7C435.3,317.8,521.5,325.2,570.1,383.1z"/>
			</g>
		</mask>
		<radialGradient id="SVGID_3_" cx="465.4488" cy="471.0794" r="136.7745" gradientUnits="userSpaceOnUse">
			<stop  offset="0" style="stop-color:#5BCBF5"/>
			<stop  offset="1" style="stop-color:#5ECBF4"/>
		</radialGradient>
		<path class="st21" d="M570.1,383.1c48.6,57.8,41.1,144.1-16.7,192.7c-57.8,48.6-144.1,41.1-192.7-16.7
			c-48.6-57.8-41.1-144.1,16.7-192.7C435.3,317.8,521.5,325.2,570.1,383.1z"/>
		
			<ellipse transform="matrix(0.7071 -0.7071 0.7071 0.7071 -196.7766 467.0979)" class="st22" cx="465.4" cy="471.1" rx="121.2" ry="121.2"/>
		<g>
			<g>
				<g>
					<path class="st23" d="M500.4,535.6c-5.4-8.7-13.6-18-17.7-17.8c-2.1-0.2-4.9-4.7-6.2-2.1c-1.7,3.7-3.6,1.2-5.6-0.5
						c-2.4-1.6-2.9-4.4-3.5-7.2c-4,0.9-7.9,1.5-9.3,0.8c-3-1.6-3.7-3.4-3.7-3.4s-12.5,6-15.3,4.7c-2.8-1.2-13.4,14.4-16.1,14
						c-2.7-0.4-1.1-1.1-3.1-5.2c-2-4.1-2.3-2.5-6.3-2.1c-3.9,0.5-5.7-2.5-5.8-5.6c-0.1-3.1-6.5-1-7.9,0.9c-1.4,1.9-3.8,7.2-4.9,6.6
						c-1.2-0.6-5.6-11.7-5.6-11.7l2.2-7c0,0,9.3-7,11-6.3c1.7,0.7,10.6,5.9,11.6,4.7c1-1.2,2.1-4.2,2.2-5.6c0-1.4-2.8,2.4-4.3-4.4
						c-1.5-6.8,0.8-12.5,0.8-12.5s-1-4.3-1.3-5.5c-0.3-1.2,0.8-10.2,2.5-11.4c1.8-1.3,5.8-5.9,6.5-8.2c0.7-2.3-0.9-3-1.5-5.4
						c-0.6-2.4,0.6,1-0.6-2.4c-1.1-3.3-8-5-9.8-6c-1.8-1-9.3,0.6-11.9,1.9c-2.6,1.3-6.7,7.9-6.7,7.9s2.9,4.9,1.7,5.7
						c-1.2,0.8-6.9,1.1-6.9,1.1s-5,0.8-4.6-2.8c0.5-3.5-0.3-4.8,1.5-6.1c1.8-1.2,3.6-3.9,3.6-3.9s0.8-0.1,1-2.6
						c0.2-2.5-1.1-3.8,1.6-4.8c2.7-0.9,3.7-2.1,5.2-0.9c1.6,1.2,3.8-20.1,3.7-22.3c-0.1-2.2-7.3,6.2-15.7-4.7
						c-6.5-8.4-20.7,36.6-21.8,36.9c-1.1,0.3-11.9,6.9-11.9,6.9l-1.6,0.8c-0.7,3.4-1.1,7-1.4,10.6c0.4-0.1,0.3-0.1,0.8-0.1
						c2-0.2,3.9-2,4.4,0.4c0.6,2.4,0.4,2.9,0.3,6.2c-0.2,3.3-0.2,1.5-0.6,5.9c-0.4,4.4,1.5,7.7,1.5,7.7l-1.5,11.1
						c0,0,4.9,7.6,5.2,8.8c0.3,1.2,6.9,5.3,6.9,5.3l4.4,11.1c0,0,5.5,7.2,6.3,4.3c0.8-2.9,0.8-7.4-0.9-8.1c-1.7-0.6,1-0.3,3.5,1.7
						c2.4,2,4.9,7.6,5.9,10.1c1,2.5,9.3,2.2,14,1.7c4.7-0.6,8.4-3.6,13.5-0.7c5.1,2.9,4.4-4,7.6-0.7c3.2,3.3,7.5,4.9,10.7,4
						c3.3-0.9,5.7-6.7,8.3-3.1c2.6,3.7-5.5,17.1,0.6,22.5c2.9,2.6,8.3,4.1,13.4,5.2c14-1.1,26.2,6.6,36.4,17.7
						c0.9,0.8,1.9,0.1,3.1-0.8c1.1-1.6,2-2.9,2.3-3.4c1.1-1.7,5.8-16,5.1-17.8c-0.7-1.8,3.7-8.1,4.6-8.7
						C500.7,541.2,500.6,538.9,500.4,535.6z"/>
				</g>
				<g>
					<path class="st23" d="M410.4,505.9c1.7,2.1,3.8,1.1,5,1.7c1.2,0.6-0.6-2.4,1.1-3.2c1.7-0.9,7.6-4.7,7.9-2.5
						c0.3,2.2,2.1-2,3.6-2.4c1.5-0.4,0.5-2.1-1-1.5c-1.4,0.6-3.4-0.4-5,0.2C420.5,498.7,410.4,505.9,410.4,505.9z"/>
				</g>
				<g>
					<path class="st23" d="M431.6,503c-1.1,0.7,1.3,0.7,3.3,0.3c2-0.4,1.7-1.6,2.3-4.1c0.7-2.5-1-4.4-2.2-3.5
						C433.9,496.7,434.5,501.3,431.6,503z"/>
				</g>
				<g>
					<path class="st24" d="M401.8,377.3c2.6,0.6,4.1-4.1,8.9,2.3c4.8,6.4,3.1,9.4,7,11.4c3.9,2,2,7.4,1,7.6c-1,0.2-4.3,1.5-6,2.2
						c-1.8,0.7-6.6,2.1-8-0.1c-1.4-2.3-0.8-4.1-3.9-6.3c-3.2-2.3-4-1.3-6.5-1.4c-2.5-0.2-2.7-2.8-5.3-0.6c-2.7,2.2-7.9,7.5-8.4,4.2
						c-0.5-3.3,0-4.6,1.2-7.7c1.2-3.1-1.1,0.3,1.2-3.1c2.3-3.4,0.9-3.4,4-4.5C390.2,380,401.8,377.3,401.8,377.3z"/>
				</g>
				<g>
					<path class="st23" d="M468.6,354.8c0.4,0.9,2.6,1.5,0.5,2.4c-2.1,0.9-3.2,1.9-3.5,2.4c-0.2,0.5-1.4,0.9-2.2,2.1
						c-0.8,1.2-0.9,1.2-2.3,2.4c-1.4,1.2-1.4,1.2-1.4,1.2c-0.3,0.3-0.5,0.6-0.8,0.8c0,0-1.3,0.2-2.1-0.4c-0.8-0.7-1-1.9-1.7-1.6
						c-0.7,0.3-2.3,2.2-2.2,3c0.2,0.8,0.8,2.1,1.6,2.3c0.8,0.1,3,0,1.6,0.7c-1.4,0.7-3,1.9-3.4,3.3c-0.3,1.3-0.7,4-0.7,4
						c0,0-2.5,2.6-2,3.2c0.5,0.7,1.3,1.6,0.4,2.5c-0.9,1-1.9,2.5-3.1,3.9c-1.1,1.4-0.6,1.9-2,3.4c-1.4,1.5-1.1,2.4,0.5,1.4
						c1.6-1,4.6-2,5.5-1c1,1,1.7,2.4,2,4.1c0.2,1.1-2.5,2.6-3.9,3.8c-1.4,1.2-4.4,3-5.2,4.6c-0.7,1.5,1.4,3.9,2.7,4.9
						c1.2,0.9,1.3,2,1.2,2.8c-0.1,0.8,0.7,2.2,1.6,2.2c1,0.1,2.4,0.9,3,0.6c0.6-0.3,1.6-2.1,2.7-2c1.1,0.2,3,1.4,3,0.6
						c0-0.7-0.9-2.9,0-3c0.9-0.1,1.9-1.9,2.8-2.9c0.9-1,0.4-2.9,0.9-4.5c0.5-1.6-0.1-1.1-1.1-1.6c-1-0.5-0.3-2.6-0.3-4.3
						c0.1-1.6,2.2-2.1,1.7-3.5c-0.5-1.3-1.8-3.2-0.8-3.9c1-0.7,2.8-1.1,3.6-1.8c0.8-0.7,1.4-3.5,1.6-4.2c0.2-0.6,2-2,3.2-1.1
						c1.2,0.9,4.3,0.6,5,0.5c0.7-0.1,4.5-1.7,5.3-1.7c0.8,0,2.5,0.5,3.6,1.4c1.1,0.8,3.6,0.9,2.9-0.1c-0.7-1-4.5-2.8-3.6-3.3
						c0.9-0.6,1.5-1.7,1.5-1.7c0,0-3.6,0.2-4.8,0.6c-1.1,0.3-3.3,0.8-5,0.2c-1.8-0.6-3.7,0.6-4.6-0.7c-0.9-1.3,1.3-1.9,3-1.7
						c1.7,0.2,5.2-0.5,6.8-0.3c1.6,0.2,3.2-0.5,4.5,0.3c1.4,0.8,3.5,1.2,4.3,1.4c0.8,0.2,4.7,4.1,5.7,4.5c0.9,0.4,1.2-3.5,1.3-4.5
						c0.1-1,0.9-2.1,0.1-3.3c-0.8-1.1-3-0.6-3.8-0.6c-0.8,0,0.5-1.7,0.6-2.7c0.1-1,0.3-2.7,1.5-2.3c1.1,0.3,3.7,3.5,4.4,3.8
						c0.7,0.3,3.7-0.9,4.8-0.6c1.1,0.2,3.2-1.1,3.2-1.8c0-0.7,2.4-1.6,3-1.8c0.6-0.3,1.6-1.8,2.2-2.8c0.7-1,0.8-2.5,2.3-0.8
						c1.5,1.7,3.6,4.6,3.7,6.9c0.1,2.3,1.2,2.6,0,3.6c-0.5,0.5-1,0.9-1.2,1.4c-1-0.4-2-0.5-2.5,0.3c-1,1.6-2.4,2.7-3.5,2.5
						c-1.1-0.3-3.6,2.4-5.1,3.7c-1.5,1.3-3.8,1.3-5.2,2c-1.4,0.7,0.5,4,0.5,6.4c0,2.4-3.6,1.8-4.7,2.7c-1.1,0.9-4.6,0.8-4.6,0.8
						c0,0-2.8,0.7-3.6,1.5c-0.8,0.7-4,0.3-4.5,0.7c-0.5,0.4-2.8,0.3-2.3-1.1c0.5-1.3,3.5-1.9,0-4.1c-3.4-2.1-6.1,1.2-6.6,2.3
						c-0.5,1.1-6.4,6-6.9,6.4c-0.5,0.4-2.7,4.7-3.3,6.2c-0.6,1.5-1.9,3.8-2.2,4.5c-0.3,0.7-3.3,2-3.8,3.6c-0.7,2.1-0.8,4.8-1.1,5.1
						c-0.3,0.3-0.6,2.2,0.3,5c1,2.8,3.3,4,2.6,5.9c-0.7,1.9-2.6,5.5-2.6,7.5c0,2,2.9,7.3,3.2,10.3c0.4,3,3,3.8,4.2,4.7
						c1.2,1,3.8,2.5,4.2,5.8c0.4,3.2,1.4,4.2,0.9,4.8c-0.5,0.7,1.2,0.2,2.7,1.5c1.5,1.3,1.4,3.9,4.7,3.2c3.3-0.6,5.5-2.3,7.5-1.1
						c2.1,1.3,7.4,3.5,7.4,3.5c0,0,4.1,0.5,6,0.5c1.9,0.1,1.8-0.8,1.2-2c-0.6-1.2,0.7-2.6,2.4-4c1.7-1.4,3.2-2,4.6-3.8
						c1.4-1.7,0.6-5.3,0.9-6.1c0.4-0.8,2.5-3.4,5-3.6c2.5-0.2,3.5,1.6,5.2,1.9c1.6,0.3,2.6-1.5,2.8-3.5c0.2-2,0.1-1.1,2.1-1.4
						c2-0.3,3.3,0.1,3.1,2.4c-0.1,2.3,2.1,3.7,3,6.3c0.8,2.6,2.2,1.4,4.1,1.1c2-0.3,7.1,4.2,8.5,4.5c1.4,0.3,2.5,3.8,4.4,4.6
						c1.9,0.9,2.9,1.5,2.6,3c-0.3,1.5-0.4,4,1.3,6.5c1.6,2.5,3.3,3.5,4.2,3.9c1,0.4,3.5,1.5,4.5,1.8c1,0.3,3.7,0,4.5,1
						c0.8,1,0.4,3.9,1.2,4c0.8,0.1,1.6,0.6,2.9,0.5c1.3-0.1,2.3,1,2.3,1c0,0,0.6,0.3,1.1,1.1c0.5,0.8,0.8,1.2,1.9,0.7
						c1.1-0.5,1.7-1,2.1-1.8c0.3-0.8,2-3.3,3.2-4.3c1.2-1,3-2.5,4-4.3c1-1.8,2-5.6,2.4-7c0.4-1.3,1.4-4,0.9-4.6
						c-0.5-0.6-2.2-1-1.7-2.1c0.6-1.2,3-3.9,2.8-4.7c-0.2-0.7-2.3-2.9-2.8-3.3c-0.5-0.4-0.3-2.1-0.1-4.1c0.2-2,1.5-4.8,1.4-5.7
						c-2.6-17.1-12.3-38-24.1-52.8c-23.8-29.9-55.8-44.4-89.3-45.9c-0.6,0.6-1.6,0.8-2.5,1.4C467.6,352.2,468.2,353.9,468.6,354.8z"
						/>
				</g>
				<g>
					<path class="st25" d="M570.5,410.5c-0.4,45.1-19.7,89.8-56.9,121.1c-32.4,27.2-79.2,40.5-118.3,38.3c2.2,1.7,6.8,4.5,9.2,5.9
						c43,25,98.8,21.8,139-12C589.2,525.4,599.4,460.5,570.5,410.5z"/>
				</g>
				<g>
					<path class="st23" d="M439.9,358.9c-1.6,1.8-2.1,6-1.8,6.3c0.3,0.3,2.1,0.8,2.2,1.3c0,0.4,1.7,1.2,3.2,0.6
						c1.5-0.6,3.4-2.4,3-3.1c-0.4-0.6,0.2-3,1-2.4c0.8,0.6,3,1,3.3,1.7c0.3,0.7,1,1.1,1.7,0.4c0.7-0.7,3.9-4.8,3.9-4.8
						c0,0,0.8-1.5-0.1-2c-0.9-0.5-0.3-2.7-0.2-3.2c0.1-0.5,0.2-2.3-1.4-1.5c-1.7,0.8-2.7,1.6-2.2-0.4c0.2-0.9,0.2-0.9,0.7-1.4
						c0.9,0-4.8,0.4-8.9,1.3c0,0,0,0.3-0.4,1.2C443.1,354.5,441.5,357,439.9,358.9z"/>
				</g>
				<g>
					<g>
						<path class="st23" d="M427.8,382.3c0.5-0.7,1.6-0.6,1.7-1.6c0.1-1,0.4-2.2,1.6-2.5c1.2-0.3,3.1-2.6,4.3-2.6
							c1.2,0-0.7,3.9,0.2,3.7c0.9-0.2,3.4,0.7,4.7,0.3c1.3-0.4,3.3-0.2,4,0.4c0.7,0.7,0.3,3.1-0.6,3.9c-0.9,0.8-3.1,1.7-3.9,2.5
							c-0.9,0.8-0.4,2.1-1.1,2.3c-0.7,0.3-0.7-1.1-0.7-1.1c0,0-2.8,3-3.1,2.1c-0.3-0.9,0.6-5.2,1.1-6.4c0.5-1.2-2,0.4-3.4,0.9
							c-1.4,0.5-2.9,0-3.7-0.1C428.1,384,427.1,383.3,427.8,382.3z"/>
					</g>
				</g>
			</g>
		</g>
	</g>
</g>
<g id="rocket">
	<g>
		<g>
			<path class="st26" d="M653,627.7l-32.6-35.5l-10.7,9.8c-0.8,5.6-0.7,10.9-0.6,13.9c0.1,1.5,0.7,3,1.7,4.1l13.7,14.9
				c1.1,1.2,2.7,2,4.4,2.1c3,0.2,8.2,0.3,13.7,0.2L653,627.7z"/>
			<g>
				<path class="st24" d="M710.7,487.2c-15.1,7.7-31.7,19.7-49,38.2c-26.2,28-37.6,50.2-44.9,62.9c-5.6,9.8-1,25.6,6.6,33.9l0,0
					c7.7,8.3,22.6,13.9,32.9,9.1c13.3-6.2,36.4-15.7,66.5-39.4c19.9-15.7,33.3-31.3,42.2-45.6c-12.7-4.7-24.5-12.4-34.3-23
					C720.9,512.7,714.2,500.3,710.7,487.2z"/>
				<path class="st26" d="M730.6,523.4c-9.8-10.7-16.1-23.2-19.9-36.2c-0.2-0.8-1.2-1.3-2-0.9c-0.8,0.4-1.7,0.9-2.5,1.3
					c-0.6,0.3-0.9,0.9-0.7,1.6c6.9,28.1,29.4,53.1,57,62.2c0.6,0.2,1.3,0,1.6-0.6c0.5-0.8,1-1.7,1.5-2.6c0.4-0.7,0.1-1.7-0.7-2
					C752.3,541.3,740.4,534.1,730.6,523.4z"/>
				<path class="st27" d="M781.2,476.9c-3.1-0.4-31.6-9.6-70.5,10.3c3.6,13,10.2,25.5,20,36.1c9.8,10.7,21.6,18.3,34.3,23
					C788,509.2,781.3,480.1,781.2,476.9z"/>
				<path class="st26" d="M781.2,476.9c-1.7-0.2-10.3-2.8-23.8-2.4c3,5.1,6.6,9.9,10.7,14.4c4.1,4.5,8.7,8.5,13.4,11.9
					C783.1,487.5,781.2,478.6,781.2,476.9z"/>
				<path class="st28" d="M765,546.4c10.9-17.6,15.2-33.4,16.6-45.5h0c0,0,0,0,0,0c1.7-12.7-0.4-23.8-0.4-23.9l0,0c0,0,0,0,0,0
					c-0.1,0-0.8-0.1-0.9-0.2c-0.2,0-0.3-0.1-0.5-0.1c0,0.2-6.8,39.1-18.8,58.4c-9.8,15.7-24.4,32.8-46.3,50
					c-33,26-58.4,36.4-72.9,43.2c-2.2,1-4.7,1.6-7.2,1.8c7.1,3.2,15.3,4.2,21.7,1.2c13.3-6.2,36.4-15.7,66.5-39.4
					C742.7,576.3,756,560.7,765,546.4z"/>
			</g>
			<g>
				<path class="st27" d="M635.1,557l-26.7,7.3c-1.7,0.5-3.2,1.5-4.3,3l-33.9,36.7c-1.2,1.3-1.2,3.3,0,4.6l0,0c1,1.1,2.7,1.4,4,0.8
					l37.7-18.2l7.6,0.5c1,0.1,1.9-0.5,2.4-1.4l15.5-30.5C638.3,558.4,636.9,556.5,635.1,557z"/>
				<path class="st29" d="M570.8,606.3l33.9-36.7c1-1.5,2.5-2.6,4.3-3l26.7-7.3c0.7-0.2,1.4,0,1.9,0.5c0.6-1.5-0.8-3.1-2.4-2.7
					l-26.7,7.3c-1.7,0.5-3.2,1.5-4.3,3l-33.9,36.7c-1.1,1.2-1.2,2.9-0.3,4.2C570,607.6,570.3,606.9,570.8,606.3z"/>
			</g>
			<g>
				<path class="st27" d="M688.8,615.5l-9.6,26c-0.6,1.7-1.8,3.1-3.4,4l-39.5,30.6c-1.4,1.1-3.4,0.9-4.6-0.4l0,0
					c-1-1.1-1.2-2.8-0.4-4.1l21.4-36l0.2-7.6c0-1,0.6-1.9,1.6-2.3l31.7-12.8C687.7,612.2,689.4,613.8,688.8,615.5z"/>
				<path class="st29" d="M634.2,675.4l39.5-30.6c1.6-0.9,2.8-2.3,3.4-4l9.6-26c0.3-0.7,0.1-1.4-0.3-1.9c1.6-0.5,3.1,1.1,2.5,2.7
					l-9.6,26c-0.6,1.7-1.8,3.1-3.4,4l-39.5,30.6c-1.3,1-3,0.9-4.2,0C632.9,676.1,633.6,675.9,634.2,675.4z"/>
			</g>
			<path class="st30" d="M614.1,630.4c-9.9-10.8-28-15.6-42.5-0.5c0,0-0.1,0.1-0.1,0.1c-43.2,41.7-105.1,64.7-174.5,64.7
				c-20.9,0-41.7-2.6-61.7-7.7c-2.5-0.6-5,0.9-5.6,3.4c-0.6,2.5,0.9,5,3.4,5.6c20.8,5.3,42.4,8,64,8c14.3,0,28.4-1,42-2.8
				c0.1,0,0.2,0,0.2,0c10-1.4,13.6-0.8,14.9,4.9c1.1,4.9-1.9,7.4-6.7,8.4c-14,2.2-28.2,3.4-42.6,3.7c-2.6,0-4.6,2.2-4.6,4.7
				c0,2.5,2.1,4.6,4.6,4.6c0,0,0.1,0,0.1,0c32.8-0.6,64.9-6.1,95.4-16.3c0.1,0,0.1-0.1,0.2-0.1c5.5-1.8,13.8-5.2,16.3-0.1
				c1.4,2.8,1.4,5.1-3.2,7.7c-4.7,1.8-9.5,3.6-14.3,5.2c-2.4,0.8-3.7,3.4-2.9,5.9c0.7,1.9,2.5,3.2,4.4,3.2c0.5,0,1-0.1,1.5-0.2
				C632,689.7,624.6,641.8,614.1,630.4z M525.5,713.7c-1,0.4-2,0.8-3,1.3L525.5,713.7z"/>
			<g>
				<path class="st31" d="M601.8,641.6c-6.3-6.9-17.9-9.3-27.3,1.9c-11.1,13.1-36.2,28.5-46.3,33.7c-1.1,0.6-1.6,2-1,3.1
					c0.4,0.8,1.2,1.3,2.1,1.3c0.4,0,0.7-0.1,1.1-0.3c9.5-4.9,18.6-10.4,27.1-16.4c2.9-1.8,7.1-2.7,9.6-0.1c3,3,2.3,6.8-0.2,8.7
					c-1.1,0.8-2.3,1.7-3.4,2.5c-1,0.7-1.3,2.2-0.6,3.2c0.5,0.6,1.2,1,1.9,1c0.5,0,0.9-0.1,1.3-0.4c2.7-1.9,5.5-4,8.3-6.1
					c0.4-0.2,0.8-0.4,1.1-0.7c3.8-2.8,6.4-4,8.3-2.1c1.7,1.6,2,3.7-0.2,5.8c-2,1.7-4.1,3.4-6.5,5.3c-1,0.8-1.2,2.2-0.4,3.3
					c0.5,0.6,1.1,0.9,1.8,0.9c0.5,0,1-0.2,1.4-0.5C613.8,659.9,607.2,647.5,601.8,641.6z"/>
				<path class="st31" d="M549.6,690.2c0.4,0,0.8-0.1,1.2-0.3c2.3-1.4,4.7-2.9,7.1-4.5c1.1-0.7,1.4-2.1,0.7-3.2
					c-0.7-1.1-2.1-1.4-3.2-0.7c-2.3,1.5-4.6,3-6.9,4.4c-1.1,0.7-1.4,2.1-0.8,3.2C548.1,689.8,548.8,690.2,549.6,690.2z"/>
				<path class="st31" d="M540.4,693.2c-0.6-1.1-2-1.6-3.1-1c-4.2,2.3-7.8,4-11,5.6c-1.8,0.9-3.4,1.7-4.8,2.4c-1.1,0.6-1.6,2-1,3.1
					c0.4,0.8,1.2,1.3,2.1,1.3c0.4,0,0.7-0.1,1.1-0.3c1.4-0.7,3-1.5,4.7-2.4c3-1.5,6.8-3.4,11.1-5.7
					C540.6,695.7,541,694.3,540.4,693.2z"/>
				<path class="st31" d="M513.1,684.4c-5.8,2.5-11.8,4.8-17.7,6.8c-1.2,0.4-1.9,1.7-1.4,2.9c0.3,1,1.2,1.6,2.2,1.6
					c0.2,0,0.5,0,0.7-0.1c6-2.1,12.1-4.4,18.1-7c1.2-0.5,1.7-1.9,1.2-3.1C515.6,684.4,514.3,683.9,513.1,684.4z"/>
				<path class="st31" d="M485,694.5c-5,1.4-7.9,2-8,2c-1.3,0.3-2.1,1.5-1.8,2.7c0.2,1.1,1.2,1.9,2.3,1.9c0.2,0,0.3,0,0.5,0
					c0.1,0,3.1-0.6,8.3-2.1c1.2-0.4,2-1.6,1.6-2.9C487.5,694.9,486.2,694.2,485,694.5z"/>
				<path class="st31" d="M539.7,704.9c-1.5,0.7-3,1.5-4.6,2.2c-1.2,0.5-1.7,1.9-1.1,3.1c0.4,0.8,1.2,1.3,2.1,1.3
					c0.3,0,0.7-0.1,1-0.2c1.6-0.7,3.1-1.5,4.7-2.2c1.2-0.6,1.6-2,1.1-3.1C542.2,704.8,540.8,704.3,539.7,704.9z"/>
				<path class="st31" d="M563.5,691.5c-5.1,3.3-10.5,6.4-16,9.4c-1.1,0.6-1.6,2-1,3.1c0.4,0.8,1.2,1.2,2,1.2c0.4,0,0.7-0.1,1.1-0.3
					c5.7-3,11.2-6.3,16.4-9.6c1.1-0.7,1.4-2.1,0.7-3.2C566,691.1,564.6,690.8,563.5,691.5z"/>
			</g>
			<circle class="st27" cx="705.9" cy="546" r="20.6"/>
			
				<ellipse transform="matrix(4.079539e-02 -0.9992 0.9992 4.079539e-02 131.5724 1229.1093)" class="st24" cx="705.9" cy="546" rx="17.3" ry="17.3"/>
			<path class="st32" d="M716,557c-6.1,5.6-15.5,5.2-21-0.9c-5.6-6.1-5.2-15.5,0.9-21c6.1-5.6,15.5-5.2,21,0.9
				C722.5,542,722.1,551.4,716,557z"/>
			<path class="st26" d="M716.9,536c-5.6-6.1-15-6.5-21-0.9c-3.1,2.9-4.7,6.7-4.8,10.6l29.6-1.9C720.2,541,719,538.2,716.9,536z"/>
		</g>
		<path class="st27" d="M648.2,587.6L595,645.1c-1,1-1,2.6,0,3.6l0,0c1,1,2.5,1.2,3.6,0.3l61.4-48.7c4-3.1,4.4-9,1-12.7l0,0
			C657.6,583.9,651.7,583.9,648.2,587.6z"/>
	</g>
	<g>
	</g>
	<g>
	</g>
	<g>
	</g>
	<g>
	</g>
	<g>
	</g>
	<g>
	</g>
</g>
</svg>
