<?xml version="1.0" encoding="utf-8"?>
<!-- Generator: Adobe Illustrator 22.0.1, SVG Export Plug-In . SVG Version: 6.00 Build 0)  -->
<svg version="1.1" id="Layer_1" xmlns="http://www.w3.org/2000/svg" xmlns:xlink="http://www.w3.org/1999/xlink" x="0px" y="0px"
	 viewBox="0 0 624.8 520.5" style="enable-background:new 0 0 624.8 520.5;" xml:space="preserve">
<style type="text/css">
	.st0{display:none;}
	.st1{display:inline;fill:#1E2B35;}
	.st2{fill:#ECEAD6;}
	.st3{fill:#D6D5C4;}
	.st4{opacity:0.3;}
	.st5{fill:#CCB6A4;}
	.st6{fill:#528AB9;}
	.st7{fill:#4C83AD;}
	.st8{fill:#3E7499;}
	.st9{fill:#5A95C9;}
	.st10{opacity:0.3;fill:#5891C4;enable-background:new    ;}
	.st11{opacity:0.27;fill:#FF207B;enable-background:new    ;}
	.st12{fill:#FF207B;}
	.st13{fill:#D6117B;}
	.st14{opacity:0.3;fill:#A0005C;enable-background:new    ;}
	.st15{opacity:0.3;fill:#72EDFC;enable-background:new    ;}
	.st16{fill:#25CFE0;}
	.st17{fill:#72EDFC;}
	.st18{fill:#3194A3;}
	.st19{clip-path:url(#SVGID_4_);}
	.st20{clip-path:url(#SVGID_5_);fill:url(#SVGID_6_);}
	.st21{fill:url(#SVGID_7_);}
	.st22{fill:#5BCBF5;}
	.st23{fill:#007BBD;}
	.st24{fill:#FFFFFF;}
	.st25{fill:#00AAD8;}
	.st26{fill:#15C2FF;}
	.st27{fill:#8AE9FF;}
	.st28{fill:#F5E000;}
	.st29{fill:#F0A529;}
	.st30{fill:#AAE5F7;}
</style>
<g id="bg" class="st0">
	<rect x="-68.9" y="-653.6" class="st1" width="750" height="1334"/>
</g>
<g id="moon">
	<g>
		<ellipse class="st2" cx="89.4" cy="115.9" rx="16.6" ry="16.6"/>
		<g>
			<path class="st3" d="M83,112.9c0,1.2-1.1,2.1-2.4,2.1s-2.4-0.9-2.4-2.1c0-1.2,1.1-2.1,2.4-2.1S83,111.8,83,112.9z"/>
			<path class="st3" d="M87.2,107.8c0,0.6-0.5,1-1,1c-0.6,0-1-0.5-1-1c0-0.6,0.5-1,1-1C86.8,106.7,87.2,107.2,87.2,107.8z"/>
			<path class="st3" d="M101.5,120.5c0,1.5-1.4,2.7-3,2.7c-1.7,0-3-1.2-3-2.7s1.4-2.7,3-2.7C100.2,117.8,101.5,119,101.5,120.5z"/>
			<ellipse class="st3" cx="97.1" cy="106.7" rx="0.8" ry="1"/>
			<circle class="st3" cx="90.4" cy="116.7" r="0.3"/>
			<path class="st3" d="M86.6,127.2c0,0.8-1,1.4-2.3,1.4S82,128,82,127.2c0-0.8,1-1.4,2.3-1.4S86.6,126.5,86.6,127.2z"/>
			<path class="st3" d="M82.2,103.1c0,0.4-0.3,0.7-0.7,0.7s-0.7-0.3-0.7-0.7s0.3-0.7,0.7-0.7S82.2,102.7,82.2,103.1z"/>
		</g>
		<g>
			<g>
				<g class="st4">
					<path class="st5" d="M98.6,102.4c2.1,3,3.4,6.7,3.4,10.6c0,10.2-8.3,18.5-18.5,18.5c-0.3,0-0.6,0-0.8,0
						c2.1,0.9,4.3,1.4,6.7,1.4c9.2,0,16.6-7.5,16.6-16.6C106,110.5,103.1,105.4,98.6,102.4z"/>
				</g>
			</g>
		</g>
	</g>
</g>
<g id="Layer_8">
</g>
<g id="stars">
</g>
<g>
	<g>
		
			<ellipse transform="matrix(0.6189 -0.7854 0.7854 0.6189 -243.6454 191.8151)" class="st6" cx="75.9" cy="347" rx="21.8" ry="21.8"/>
		<g>
			
				<ellipse transform="matrix(0.9996 -2.904512e-02 2.904512e-02 0.9996 -9.6877 2.4765)" class="st7" cx="80.4" cy="334.7" rx="2.8" ry="3.1"/>
			<path class="st7" d="M74.3,343.5c-0.8,0-1.5-0.6-1.5-1.4s0.6-1.5,1.4-1.5s1.5,0.6,1.5,1.4C75.8,342.8,75.1,343.5,74.3,343.5z"/>
			<path class="st7" d="M79.5,355.4c-1.8,0.1-3.4-1.7-3.5-3.9c-0.1-2.2,1.4-4.1,3.2-4.1c1.8-0.1,3.4,1.7,3.5,3.9
				C82.8,353.5,81.3,355.4,79.5,355.4z"/>
			<path class="st7" d="M66.9,336.9c-0.8,0-1.4-0.6-1.4-1.4s0.6-1.4,1.4-1.4s1.4,0.6,1.4,1.4C68.3,336.2,67.7,336.9,66.9,336.9z"/>
			<path class="st7" d="M58.8,356.6c-1.4,0-2.5-1.6-2.6-3.6s1-3.7,2.4-3.7s2.5,1.6,2.6,3.6S60.2,356.6,58.8,356.6z"/>
			<path class="st7" d="M75.3,368.4c-2.9,0.1-5.4-2-5.4-4.6c-0.1-2.6,2.2-4.8,5.2-4.9c2.9-0.1,5.4,2,5.4,4.6S78.2,368.3,75.3,368.4z
				"/>
			
				<ellipse transform="matrix(0.9996 -2.911719e-02 2.911719e-02 0.9996 -10.1135 2.8907)" class="st7" cx="94.2" cy="348.7" rx="2" ry="2.2"/>
		</g>
		<g>
			<g>
				<g class="st4">
					<path class="st8" d="M88.4,329.2c2.7,4,4.2,8.9,4,14C92,356.5,81,367.1,67.6,366.7c-0.4,0-0.7,0-1.1-0.1c2.7,1.3,5.6,2,8.7,2.1
						c12,0.3,22-9.2,22.3-21.2C97.9,340.1,94.2,333.3,88.4,329.2z"/>
				</g>
			</g>
		</g>
	</g>
	<path class="st9" d="M112.7,337.6c-1.5-2.8-7.8-3.7-16.8-2.8c0.4,0.6,0.7,1.1,0.9,1.8c5.3-0.5,9-0.2,9.7,1.3
		c1.6,3.1-10.8,9.9-27.7,15.3c-16.9,5.3-31.9,7.2-33.6,4.1c-0.8-1.6,1.9-4.1,7.3-7c-0.1-0.8-0.2-1.6-0.2-2.3
		c-8.9,4.7-13.5,9.3-11.8,12.4c2.6,4.9,20.8,3.9,40.7-2.4C101.3,351.7,115.3,342.6,112.7,337.6z"/>
</g>
<g>
	<ellipse class="st10" cx="524.2" cy="428.3" rx="29.3" ry="29.3"/>
	<ellipse class="st6" cx="524.3" cy="428.3" rx="27.2" ry="27.2"/>
	<g>
		<g>
			<g>
				<path class="st7" d="M530.3,416L530.3,416c0,1.4,1.2,2.5,2.5,2.5h2.5c1.4,0,2.5,1.1,2.5,2.5l0,0c0,1.4-1.1,2.5-2.5,2.5h-7
					c-1.1,0-2,0.9-2,2l0,0c0,1.1,0.9,2,2,2H544c1.2,0,2.3,1,2.3,2.3l0,0c0,1.2-2.3,1.7-2.3,1.7h-5.1c-1.3,0-2.5,1.1-2.5,2.5l0,0
					c0,1.3,1.1,2.5,2.5,2.5H550c0.9-2.7,1.3-5.5,1.3-8.4c0-5.4-1.6-10.4-4.2-14.6h-14.2C531.5,413.5,530.3,414.7,530.3,416z"/>
			</g>
			<g>
				<path class="st7" d="M526.9,440L526.9,440c0-1.4-1.1-2.5-2.5-2.5H510c-1.1,0-2-0.9-2-2l0,0c0-1.1,0.9-2,2-2h8.1c1.1,0,2-0.9,2-2
					l0,0c0-1.1-0.9-2-2-2H502c-1.1,0-2-0.9-2-2v-1c0-1.1,0.9-2,2-2h9.4c1.3,0,2.5-1.1,2.5-2.5l0,0c0-1.3-1.1-2.5-2.5-2.5h-13
					c-0.9,2.7-1.3,5.5-1.3,8.4c0,5.4,1.6,10.4,4.2,14.6h23C525.7,442.4,526.9,441.4,526.9,440z"/>
			</g>
			<g class="st4">
				<path class="st8" d="M540.2,406.3c3.3,5.1,5,11.1,4.8,17.6c-0.7,16.6-14.7,29.6-31.4,28.9c-0.5,0-0.9-0.1-1.4-0.1
					c3.3,1.6,7,2.6,10.9,2.8c15,0.6,27.7-11,28.3-26C551.8,420,547.3,411.5,540.2,406.3z"/>
			</g>
		</g>
	</g>
</g>
<g>
	<ellipse class="st11" cx="117.9" cy="451.9" rx="23.6" ry="23.6"/>
	<ellipse class="st12" cx="118" cy="451.9" rx="21.5" ry="21.5"/>
	<path class="st13" d="M131.9,435.5c-3.8-3.2-8.6-5.2-14-5.2c-5.3,0-10.2,1.9-14,5.2H131.9z"/>
	<path class="st13" d="M105.5,469.5c3.5,2.5,7.8,4,12.4,4s8.9-1.5,12.4-4H105.5z"/>
	<g>
		<path class="st13" d="M119.7,442.5L119.7,442.5c0,1.1,0.9,2,2,2h4c1,0,1.8,0.8,1.8,1.8l0,0c0,1-1.8,2.2-1.8,2.2h-4.5
			c-0.8,0-1.5,0.7-1.5,1.5l0,0c0,0.8,0.7,1.5,1.5,1.5h13.7c0,0,1.8,0.6,1.8,1.6l0,0c0,1-1.8,2.4-1.8,2.4h-8.6c0,0-1.8,0.2-1.8,1.2
			l0,0c0,1,0.8,1.8,1.8,1.8h12.1c0.7-2.1,1.1-4.3,1.1-6.6c0-4.2-1.2-8.1-3.4-11.4h-14.4C120.6,440.5,119.7,441.5,119.7,442.5z"/>
		<path class="st13" d="M110.6,461.5L110.6,461.5c0-1.2-0.9-2-2-2h-1.9c-0.9,0-1.6-0.7-1.6-1.6v-0.8c0-0.9,0.7-1.6,1.6-1.6h9.2
			c0.8,0,1.5-0.7,1.5-1.5l0,0c0-0.8-0.7-1.5-1.5-1.5h-15.2c-0.9,0-1.6-0.7-1.6-1.6v-0.6c0,0,0.1-1.6,1-1.8h6.7
			c1,0.2,1.8-0.6,1.8-1.6l0,0c0-1-1.8-2.4-1.8-2.4h-9.2c-0.7,2.2-1.1,4.5-1.1,7c0,4.4,1.3,8.6,3.5,12h8.6
			C109.6,463.6,110.6,462.7,110.6,461.5z"/>
		<path class="st14" d="M127.8,432.8c3.9,4.3,6.2,9.9,6.2,16.1c0,12.3-9.3,22.5-21.2,23.8c1.7,0.4,3.4,0.6,5.2,0.6
			c11.9,0,21.5-9.6,21.5-21.5C139.4,443.6,134.7,436.3,127.8,432.8z"/>
	</g>
</g>
<g>
	
		<ellipse transform="matrix(0.873 -0.4878 0.4878 0.873 16.973 300.4776)" class="st15" cx="585.3" cy="117.7" rx="30.6" ry="30.6"/>
	
		<ellipse transform="matrix(0.2723 -0.9622 0.9622 0.2723 312.7473 648.8157)" class="st16" cx="585.3" cy="117.6" rx="28.5" ry="28.5"/>
	<g>
		<g>
			<g>
				<path class="st17" d="M578.9,130L578.9,130c0-1.4-1.2-2.5-2.5-2.5h-2.7c-1.4,0-2.5-1.1-2.5-2.5l0,0c0-1.4,1.1-2.5,2.5-2.5h7.5
					c1.1,0,2-0.9,2-2l0,0c0-1.1-0.9-2-2-2h-16.4c-1.3,0-2.5-1.1-2.5-2.5l0,0c0-1.3,1.1-2.5,2.5-2.5h5.3c1.3,0,2.5-1.1,2.5-2.5l0,0
					c0-1.3-1.1-2.5-2.5-2.5h-11.7c-0.9,2.8-1.4,5.7-1.4,8.8c0,5.6,1.6,10.8,4.4,15.2h15C577.7,132.6,578.9,131.5,578.9,130z"/>
			</g>
			<g>
				<path class="st17" d="M583.8,105L583.8,105c0,1.4,1.2,2.5,2.5,2.5h14.6c1.2,0,2.1,1,2.1,2.1v0.7c0,1.2-1,2.1-2.1,2.1h-9.1
					c-1.3,0-2.2,0.9-2.2,2l0,0c0,1.1,1,2,2.2,2h18.1c1.2,0,2.1,1,2.1,2.1v0.7c0,1.2-1,2.1-2.1,2.1h-9.5c-1.3,0-2.5,1.1-2.5,2.5l0,0
					c0,1.3,1.1,2.5,2.5,2.5h12c0.9-2.8,1.4-5.7,1.4-8.8c0-5.6-1.6-10.8-4.4-15.2h-23.1C584.9,102.4,583.8,103.6,583.8,105z"/>
			</g>
			<g class="st4">
				<path class="st18" d="M601.1,93.7c4.4,6.2,6.6,14.1,5.5,22.4c-2.1,15.8-16,27.4-31.9,27.4h-0.9c3.5,1.5,7.4,2.4,11.5,2.4
					c15.7,0,28.5-12.7,28.5-28.5C613.9,107.6,608.8,98.9,601.1,93.7z"/>
			</g>
		</g>
	</g>
</g>
<g id="globe">
	<g>
		<g>
			<g>
				<defs>
					<polygon id="SVGID_1_" points="1,1.5 2,1.5 1,2.5 					"/>
				</defs>
				<defs>
					<polygon id="SVGID_3_" points="-1,-0.5 -2,-0.5 -1,-1.5 					"/>
				</defs>
				<clipPath id="SVGID_4_">
					<use xlink:href="#SVGID_1_"  style="overflow:visible;"/>
				</clipPath>
				<clipPath id="SVGID_5_" class="st19">
					<use xlink:href="#SVGID_3_"  style="overflow:visible;"/>
				</clipPath>
				
					<radialGradient id="SVGID_6_" cx="306.1" cy="286.2" r="104.1161" gradientTransform="matrix(1 0 0 -1 0 522)" gradientUnits="userSpaceOnUse">
					<stop  offset="0" style="stop-color:#FFFFFF"/>
					<stop  offset="0.1033" style="stop-color:#FAFAFA"/>
					<stop  offset="0.2269" style="stop-color:#EBEBEB"/>
					<stop  offset="0.3611" style="stop-color:#D3D3D3"/>
					<stop  offset="0.5026" style="stop-color:#B1B1B1"/>
					<stop  offset="0.65" style="stop-color:#868686"/>
					<stop  offset="0.8023" style="stop-color:#515151"/>
					<stop  offset="0.9558" style="stop-color:#131313"/>
					<stop  offset="1" style="stop-color:#000000"/>
				</radialGradient>
				<path class="st20" d="M385.8,168.8c37,44,31.3,109.7-12.7,146.7s-109.7,31.3-146.7-12.7s-31.3-109.7,12.7-146.7
					S348.8,124.8,385.8,168.8z"/>
			</g>
		</g>
		
			<radialGradient id="SVGID_7_" cx="306.1" cy="286.2" r="104.1161" gradientTransform="matrix(1 0 0 -1 0 522)" gradientUnits="userSpaceOnUse">
			<stop  offset="0" style="stop-color:#5BCBF5"/>
			<stop  offset="1" style="stop-color:#5ECBF4"/>
		</radialGradient>
		<path class="st21" d="M385.8,168.8c37,44,31.3,109.7-12.7,146.7s-109.7,31.3-146.7-12.7s-31.3-109.7,12.7-146.7
			S348.8,124.8,385.8,168.8z"/>
		
			<ellipse transform="matrix(0.7071 -0.7071 0.7071 0.7071 -77.0655 285.4854)" class="st22" cx="306.1" cy="235.8" rx="92.3" ry="92.3"/>
		<g>
			<g>
				<g>
					<path class="st23" d="M332.7,284.9c-4.1-6.6-10.3-13.7-13.5-13.6c-1.6-0.2-3.8-3.6-4.7-1.6c-1.3,2.8-2.8,0.9-4.3-0.4
						c-1.8-1.2-2.2-3.3-2.7-5.5c-3,0.7-6,1.1-7.1,0.6c-2.3-1.2-2.8-2.6-2.8-2.6s-9.5,4.5-11.7,3.6s-10.2,11-12.3,10.7
						c-2.1-0.3-0.8-0.8-2.3-4c-1.5-3.1-1.8-1.9-4.8-1.6s-4.3-1.9-4.4-4.2c-0.1-2.4-4.9-0.7-6,0.7c-1.1,1.4-2.9,5.5-3.8,5.1
						c-0.9-0.4-4.3-8.9-4.3-8.9l1.7-5.3c0,0,7.1-5.3,8.4-4.8c1.3,0.5,8.1,4.5,8.8,3.6c0.8-0.9,1.6-3.2,1.6-4.3s-2.1,1.8-3.2-3.3
						c-1.1-5.2,0.6-9.5,0.6-9.5s-0.8-3.3-1-4.2s0.6-7.7,1.9-8.7c1.4-1,4.4-4.5,5-6.3s-0.7-2.3-1.1-4.1s0.4,0.7-0.4-1.8
						c-0.9-2.5-6.1-3.8-7.5-4.5c-1.4-0.8-7.1,0.4-9.1,1.5c-2,1-5.1,6-5.1,6s2.2,3.7,1.3,4.3s-5.2,0.9-5.2,0.9s-3.8,0.6-3.5-2.1
						c0.3-2.7-0.2-3.7,1.1-4.6c1.4-1,2.7-3,2.7-3s0.6-0.1,0.8-1.9c0.2-1.9-0.8-2.9,1.2-3.6c2-0.7,2.8-1.6,4-0.7
						c1.2,0.9,2.9-15.3,2.8-17c0-1.7-5.5,4.7-11.9-3.6c-5-6.4-15.8,27.8-16.6,28.1c-0.8,0.2-9.1,5.3-9.1,5.3l-1.2,0.6
						c-0.6,2.6-0.8,5.3-1,8.1c0.3-0.1,0.2,0,0.6-0.1c1.5-0.1,3-1.5,3.4,0.3s0.3,2.2,0.2,4.7s-0.2,1.2-0.5,4.5
						c-0.3,3.4,1.1,5.8,1.1,5.8l-1.1,8.5c0,0,3.7,5.8,3.9,6.7c0.2,0.9,5.2,4,5.2,4l3.4,8.5c0,0,4.2,5.5,4.8,3.3s0.6-5.7-0.7-6.2
						s0.8-0.2,2.6,1.3s3.7,5.8,4.5,7.7c0.8,1.9,7.1,1.7,10.7,1.3c3.6-0.4,6.4-2.7,10.3-0.5s3.3-3,5.8-0.5c2.4,2.5,5.7,3.7,8.2,3
						s4.3-5.1,6.3-2.3c2,2.8-4.2,13,0.5,17.1c2.2,2,6.4,3.1,10.2,4c10.7-0.8,20,5,27.7,13.4c0.7,0.6,1.5,0.1,2.4-0.6
						c0.8-1.2,1.5-2.2,1.7-2.6c0.8-1.3,4.4-12.1,3.9-13.5s2.8-6.1,3.5-6.6C332.9,289.2,332.8,287.4,332.7,284.9z"/>
				</g>
				<g>
					<path class="st23" d="M264.2,262.3c1.3,1.6,2.9,0.9,3.8,1.3s-0.4-1.8,0.8-2.5c1.3-0.7,5.8-3.6,6-1.9c0.3,1.7,1.6-1.5,2.8-1.8
						c1.2-0.3,0.4-1.6-0.7-1.2s-2.6-0.3-3.8,0.1C271.9,256.8,264.2,262.3,264.2,262.3z"/>
				</g>
				<g>
					<path class="st23" d="M280.3,260.1c-0.9,0.5,1,0.5,2.5,0.2s1.3-1.2,1.8-3.1s-0.7-3.4-1.6-2.7
						C282,255.3,282.5,258.8,280.3,260.1z"/>
				</g>
				<g>
					<path class="st24" d="M257.6,164.4c2,0.5,3.1-3.1,6.8,1.8c3.7,4.9,2.4,7.1,5.4,8.7c3,1.5,1.6,5.6,0.8,5.8
						c-0.8,0.2-3.2,1.1-4.6,1.7c-1.3,0.5-5.1,1.6-6.1-0.1c-1.1-1.7-0.6-3.1-3-4.8s-3-1-4.9-1.1s-2-2.1-4.1-0.4c-2,1.7-6,5.7-6.4,3.2
						s0-3.5,0.9-5.9s-0.8,0.2,0.9-2.4c1.8-2.6,0.7-2.6,3.1-3.4C248.8,166.5,257.6,164.4,257.6,164.4z"/>
				</g>
				<g>
					<path class="st23" d="M308.5,147.3c0.3,0.7,2,1.1,0.4,1.8s-2.5,1.4-2.7,1.9c-0.2,0.4-1,0.7-1.7,1.6c-0.6,0.9-0.7,0.9-1.7,1.8
						c-1.1,0.9-1.1,0.9-1.1,0.9c-0.2,0.2-0.4,0.4-0.6,0.6c0,0-1,0.2-1.6-0.3s-0.8-1.5-1.3-1.2c-0.5,0.2-1.8,1.6-1.7,2.3
						c0.1,0.6,0.6,1.6,1.2,1.7c0.6,0.1,2.3,0,1.2,0.5c-1.1,0.6-2.3,1.5-2.6,2.5c-0.3,1-0.5,3.1-0.5,3.1s-1.9,2-1.5,2.5
						s1,1.2,0.3,1.9s-1.5,1.9-2.3,2.9c-0.9,1.1-0.4,1.4-1.5,2.6c-1.1,1.1-0.9,1.8,0.4,1c1.2-0.8,3.5-1.5,4.2-0.8
						c0.7,0.8,1.3,1.9,1.6,3.1c0.2,0.9-1.9,2-2.9,2.9s-3.4,2.3-3.9,3.5c-0.6,1.1,1.1,3,2,3.7s1,1.5,0.9,2.1s0.5,1.6,1.3,1.7
						c0.7,0,1.8,0.7,2.3,0.5c0.4-0.2,1.2-1.6,2.1-1.5c0.8,0.1,2.3,1,2.3,0.5c0-0.6-0.7-2.2,0-2.3s1.4-1.4,2.1-2.2s0.3-2.2,0.7-3.4
						c0.4-1.2-0.1-0.8-0.8-1.2c-0.7-0.4-0.3-2-0.2-3.2c0-1.2,1.7-1.6,1.3-2.6c-0.4-1-1.4-2.4-0.6-2.9s2.1-0.9,2.7-1.4s1-2.7,1.2-3.2
						s1.6-1.5,2.5-0.8s3.3,0.5,3.8,0.4s3.5-1.3,4.1-1.3s1.9,0.4,2.8,1s2.8,0.7,2.2-0.1c-0.5-0.8-3.4-2.1-2.7-2.5
						c0.7-0.4,1.1-1.3,1.1-1.3s-2.8,0.2-3.6,0.4c-0.9,0.2-2.5,0.6-3.8,0.2c-1.3-0.5-2.8,0.5-3.5-0.5s1-1.5,2.3-1.3
						c1.3,0.1,4-0.4,5.2-0.2c1.2,0.1,2.4-0.4,3.4,0.2c1,0.6,2.7,0.9,3.3,1.1c0.6,0.1,3.6,3.1,4.3,3.4c0.7,0.3,0.9-2.7,1-3.4
						c0.1-0.8,0.7-1.6,0.1-2.5c-0.6-0.8-2.3-0.4-2.9-0.4s0.3-1.3,0.4-2s0.3-2,1.1-1.8c0.9,0.2,2.8,2.7,3.4,2.9
						c0.5,0.2,2.8-0.7,3.6-0.5c0.8,0.2,2.5-0.9,2.5-1.4s1.8-1.2,2.3-1.4c0.4-0.2,1.2-1.4,1.7-2.1c0.5-0.8,0.6-1.9,1.8-0.6
						c1.1,1.3,2.7,3.5,2.8,5.3c0.1,1.8,0.9,2,0,2.7c-0.4,0.3-0.8,0.7-0.9,1.1c-0.8-0.3-1.5-0.4-1.9,0.2c-0.8,1.2-1.8,2.1-2.7,1.9
						c-0.8-0.2-2.7,1.8-3.9,2.8c-1.1,1-2.9,1-3.9,1.5c-1.1,0.5,0.4,3,0.4,4.9c0,1.8-2.8,1.4-3.6,2c-0.8,0.7-3.5,0.6-3.5,0.6
						s-2.2,0.6-2.8,1.1c-0.6,0.5-3,0.2-3.4,0.6c-0.4,0.3-2.1,0.2-1.8-0.8c0.4-1,2.6-1.4,0-3.1c-2.6-1.6-4.6,0.9-5,1.7
						s-4.9,4.6-5.2,4.9c-0.4,0.3-2.1,3.6-2.5,4.7c-0.5,1.1-1.5,2.9-1.6,3.4c-0.2,0.5-2.5,1.5-2.9,2.8c-0.5,1.6-0.6,3.6-0.9,3.9
						c-0.3,0.2-0.5,1.7,0.3,3.8c0.7,2.1,2.5,3,2,4.5c-0.5,1.4-2,4.2-2,5.7s2.2,5.6,2.5,7.8c0.3,2.3,2.3,2.9,3.2,3.6
						c0.9,0.8,2.9,1.9,3.2,4.4c0.3,2.5,1,3.2,0.7,3.7c-0.4,0.5,0.9,0.2,2,1.1c1.1,1,1.1,2.9,3.6,2.5c2.5-0.5,4.2-1.8,5.7-0.8
						c1.6,1,5.6,2.7,5.6,2.7s3.1,0.3,4.5,0.4c1.4,0.1,1.3-0.6,0.9-1.5c-0.5-0.9,0.5-2,1.8-3.1s2.4-1.5,3.5-2.9
						c1.1-1.3,0.4-4,0.7-4.6c0.3-0.6,1.9-2.6,3.8-2.7c1.9-0.1,2.7,1.3,3.9,1.5c1.2,0.2,2-1.2,2.2-2.6c0.2-1.5,0.1-0.8,1.6-1
						s2.5,0.1,2.4,1.9c-0.1,1.8,1.6,2.8,2.3,4.8c0.6,2,1.7,1.1,3.1,0.8c1.5-0.2,5.4,3.2,6.4,3.4c1.1,0.3,1.9,2.9,3.4,3.5
						c1.5,0.7,2.2,1.1,2,2.3c-0.3,1.2-0.3,3,1,4.9c1.2,1.9,2.5,2.7,3.2,3c0.8,0.3,2.6,1.2,3.4,1.4s2.8,0,3.4,0.8s0.3,3,0.9,3
						c0.6,0.1,1.2,0.5,2.2,0.4s1.8,0.8,1.8,0.8s0.5,0.2,0.8,0.8c0.4,0.6,0.6,0.9,1.4,0.5s1.3-0.8,1.6-1.4c0.2-0.6,1.5-2.5,2.5-3.3
						c0.9-0.8,2.3-1.9,3-3.3c0.7-1.4,1.5-4.3,1.8-5.3s1.1-3,0.7-3.5s-1.7-0.7-1.3-1.6c0.5-0.9,2.3-3,2.2-3.6
						c-0.1-0.6-1.7-2.2-2.1-2.5s-0.2-1.6-0.1-3.1s1.1-3.6,1-4.3c-2-13-9.4-28.9-18.3-40.2c-18.1-22.8-42.5-33.8-68-34.9
						c-0.5,0.4-1.2,0.6-1.9,1.1C307.7,145.3,308.2,146.6,308.5,147.3z"/>
				</g>
				<g>
					<path class="st23" d="M286.6,150.4c-1.2,1.4-1.6,4.5-1.4,4.8c0.2,0.2,1.6,0.6,1.6,1c0,0.3,1.3,0.9,2.4,0.4s2.6-1.9,2.3-2.3
						c-0.3-0.5,0.1-2.3,0.7-1.8s2.3,0.7,2.5,1.3c0.2,0.5,0.8,0.8,1.3,0.3c0.5-0.6,3-3.6,3-3.6s0.6-1.2-0.1-1.5
						c-0.7-0.4-0.2-2-0.1-2.4c0-0.4,0.2-1.8-1.1-1.1c-1.3,0.6-2.1,1.2-1.7-0.3c0.2-0.7,0.2-0.7,0.5-1c0.7,0-3.6,0.3-6.8,1
						c0,0,0,0.2-0.3,0.9C289.1,147.1,287.9,149,286.6,150.4z"/>
				</g>
				<g>
					<g>
						<path class="st23" d="M277.4,168.2c0.4-0.6,1.2-0.5,1.3-1.3c0.1-0.8,0.3-1.7,1.2-1.9c0.9-0.2,2.3-2,3.3-2
							c0.9,0-0.6,2.9,0.1,2.8c0.7-0.1,2.6,0.6,3.6,0.2c1-0.3,2.5-0.2,3,0.3s0.2,2.4-0.5,3s-2.3,1.3-3,1.9c-0.7,0.6-0.3,1.6-0.9,1.8
							c-0.5,0.2-0.5-0.9-0.5-0.9s-2.1,2.3-2.4,1.6c-0.2-0.7,0.5-4,0.9-4.9s-1.5,0.3-2.6,0.7c-1,0.4-2.2,0-2.8-0.1
							C277.7,169.5,276.9,169,277.4,168.2z"/>
					</g>
				</g>
			</g>
		</g>
	</g>
</g>
<g id="rocket">
	<g>
		<g>
			<path class="st25" d="M442,375l-14.3-15.6l-4.7,4.3c-0.3,2.5-0.3,4.8-0.2,6.1c0,0.7,0.3,1.3,0.8,1.8l6,6.5c0.5,0.5,1.2,0.9,2,0.9
				c1.3,0.1,3.6,0.2,6.1,0.1L442,375z"/>
			<g>
				<path class="st26" d="M467.3,313.1c-6.7,3.4-13.9,8.7-21.6,16.8c-11.5,12.3-16.6,22.1-19.8,27.7c-2.5,4.3-0.5,11.3,2.9,14.9l0,0
					c3.4,3.7,9.9,6.1,14.5,4c5.8-2.7,16-6.9,29.3-17.4c8.8-6.9,14.6-13.8,18.6-20.1c-5.6-2.1-10.8-5.4-15.1-10.1
					C471.8,324.4,468.9,318.9,467.3,313.1z"/>
				<path class="st25" d="M476.1,329c-4.3-4.7-7.1-10.2-8.8-15.9c-0.1-0.3-0.5-0.6-0.9-0.4s-0.8,0.4-1.1,0.6
					c-0.2,0.1-0.4,0.4-0.3,0.7c3,12.4,13,23.4,25.1,27.4c0.3,0.1,0.6,0,0.7-0.3c0.2-0.3,0.5-0.8,0.7-1.2c0.2-0.3,0.1-0.8-0.3-0.9
					C485.6,337,480.4,333.7,476.1,329z"/>
				<path class="st27" d="M498.4,308.6c-1.4-0.2-13.9-4.2-31.1,4.5c1.6,5.7,4.5,11.2,8.8,15.9c4.3,4.7,9.5,8.1,15.1,10.1
					C501.4,322.9,498.4,310,498.4,308.6z"/>
				<path class="st25" d="M498.4,308.6c-0.8-0.1-4.6-1.3-10.5-1c1.3,2.3,2.9,4.3,4.7,6.4c1.9,2,3.8,3.8,5.9,5.3
					C499.2,313.2,498.4,309.3,498.4,308.6z"/>
			</g>
			<g>
				<path class="st27" d="M434.1,343.8l-11.8,3.2c-0.8,0.2-1.4,0.7-1.9,1.3l-14.9,16.2c-0.5,0.6-0.5,1.4,0,2l0,0
					c0.5,0.5,1.2,0.6,1.8,0.3l16.6-8l3.4,0.2c0.5,0,0.9-0.2,1-0.6l6.8-13.4C435.5,344.5,434.9,343.7,434.1,343.8z"/>
			</g>
			<g>
				<path class="st27" d="M457.9,369.6l-4.2,11.5c-0.3,0.8-0.8,1.4-1.5,1.7l-17.4,13.5c-0.6,0.5-1.5,0.4-2-0.2l0,0
					c-0.5-0.5-0.5-1.2-0.2-1.8l9.4-15.8l0.1-3.4c0-0.5,0.3-0.8,0.7-1l13.9-5.7C457.4,368.1,458.2,368.9,457.9,369.6z"/>
			</g>
			<path class="st28" d="M424.8,375.2c-4.3-4.9-12.4-7.1-18.7-0.2L406,375c-19,19-46.3,29.5-76.9,29.5c-9.2,0-18.3-1.2-27.2-3.5
				c-1.1-0.3-2.2,0.4-2.5,1.6c-0.3,1.1,0.4,2.3,1.5,2.6c9.2,2.4,18.6,3.7,28.2,3.7c6.3,0,12.5-0.4,18.5-1.3c0.1,0,0.1,0,0.1,0
				c4.4-0.6,6-0.4,6.5,2.2c0.5,2.2-0.8,3.4-2.9,3.8c-6.2,1-12.4,1.6-18.7,1.7c-1.4,0-2.3,1.3-1.9,2.8c0.2,0.9,1.1,1.4,2,1.4h0
				c14.5-0.2,28.6-2.8,42-7.4c0.1,0,0.1-0.1,0.1-0.1c2.4-0.8,6.1-2.4,7.2,0c0.6,1.3,0.6,2.3-1.4,3.5c-2.1,0.8-4.2,1.6-6.3,2.3
				c-1.1,0.4-1.6,1.6-1.3,2.7c0.3,0.9,1.1,1.4,2,1.4c0.2,0,0.5-0.1,0.6-0.1C432.7,402.3,429.4,380.4,424.8,375.2z M385.8,412.8
				c-0.5,0.2-0.9,0.3-1.3,0.6L385.8,412.8z"/>
			<g>
				<path class="st29" d="M419.4,381.1c-2.8-3.1-7.9-4.1-12,0.8c-4.9,5.8-16,12.6-20.4,14.9c-0.5,0.2-0.7,0.9-0.5,1.4
					c0.2,0.3,0.5,0.6,0.9,0.6c0.2,0,0.3-0.1,0.5-0.1c4.2-2.1,8.2-4.6,11.9-7.2c1.3-0.8,3.1-1.2,4.2-0.1c1.3,1.3,1,3-0.1,3.8
					c-0.5,0.3-1,0.8-1.5,1.1c-0.5,0.3-0.6,1-0.2,1.4c0.2,0.3,0.5,0.4,0.8,0.4c0.2,0,0.4-0.1,0.6-0.2c1.2-0.9,2.4-1.8,3.6-2.7
					c0.2-0.1,0.3-0.2,0.5-0.3c1.7-1.2,2.8-1.7,3.6-0.9c0.8,0.7,0.9,1.6-0.1,2.5c-0.9,0.8-1.9,1.5-2.9,2.3c-0.5,0.3-0.5,1-0.2,1.4
					c0.2,0.3,0.5,0.4,0.8,0.4c0.2,0,0.5-0.1,0.6-0.2C424.7,389.1,421.8,383.7,419.4,381.1z"/>
				<path class="st29" d="M396.4,402.5c0.2,0,0.3-0.1,0.5-0.2c1-0.6,2.1-1.3,3.1-2c0.5-0.3,0.6-0.9,0.3-1.4
					c-0.3-0.5-0.9-0.6-1.4-0.3c-1,0.6-2,1.3-3.1,1.9c-0.5,0.3-0.6,0.9-0.3,1.4C395.8,402.3,396.1,402.5,396.4,402.5z"/>
				<path class="st29" d="M392.4,403.8c-0.3-0.5-0.9-0.7-1.4-0.4c-1.9,1-3.5,1.8-4.9,2.5c-0.8,0.4-1.5,0.8-2.1,1
					c-0.5,0.2-0.7,0.9-0.5,1.4c0.2,0.3,0.5,0.6,0.9,0.6c0.2,0,0.3-0.1,0.5-0.1c0.6-0.3,1.3-0.6,2.1-1c1.3-0.6,3-1.5,4.9-2.5
					C392.5,404.9,392.6,404.3,392.4,403.8z"/>
				<path class="st29" d="M380.4,399.9c-2.6,1.1-5.2,2.1-7.8,3c-0.5,0.2-0.8,0.8-0.6,1.3c0.2,0.4,0.5,0.7,1,0.7c0.1,0,0.2,0,0.3-0.1
					c2.7-0.9,5.3-1.9,7.9-3.1c0.5-0.2,0.8-0.8,0.5-1.3C381.5,399.9,380.8,399.7,380.4,399.9z"/>
				<path class="st29" d="M368,404.6c-2.2,0.6-3.5,0.9-3.5,0.9c-0.6,0.1-0.9,0.6-0.8,1.2c0.1,0.5,0.5,0.8,1,0.8c0.1,0,0.1,0,0.2,0
					c0.1,0,1.4-0.3,3.6-0.9c0.5-0.2,0.9-0.7,0.7-1.3C369.1,404.8,368.5,404.4,368,404.6z"/>
				<path class="st29" d="M392.1,409c-0.6,0.3-1.3,0.6-2,1c-0.5,0.2-0.8,0.9-0.5,1.3c0.2,0.3,0.5,0.6,0.9,0.6c0.2,0,0.3-0.1,0.4-0.1
					c0.7-0.3,1.4-0.6,2.1-1c0.5-0.2,0.7-0.9,0.5-1.4C393.2,408.9,392.6,408.7,392.1,409z"/>
				<path class="st29" d="M402.5,403.1c-2.3,1.4-4.6,2.8-7.1,4.2c-0.5,0.3-0.7,0.9-0.4,1.4c0.2,0.3,0.5,0.5,0.9,0.5
					c0.2,0,0.3-0.1,0.5-0.1c2.5-1.3,4.9-2.8,7.2-4.2c0.5-0.3,0.6-0.9,0.3-1.4C403.6,402.9,403,402.8,402.5,403.1z"/>
			</g>
			<circle class="st25" cx="465.3" cy="339" r="9.1"/>
			<ellipse class="st24" cx="465.3" cy="339" rx="7.6" ry="7.6"/>
			<path class="st25" d="M471.4,336.7c-0.3-0.8-0.7-1.5-1.3-2.1c-2.4-2.7-6.6-2.8-9.3-0.4c-0.2,0.2-0.3,0.3-0.5,0.5
				c-0.1,0.2-0.3,0.3-0.4,0.5c0,0,0,0,0,0c-0.8,1.1-1.2,2.4-1.3,3.7l0,0c0,1.6,0.5,3.3,1.7,4.6c2.4,2.7,6.6,2.8,9.3,0.4
				C471.7,342,472.3,339.1,471.4,336.7z"/>
		</g>
		<path class="st27" d="M439.8,357.3l-23.5,25.3c-0.4,0.5-0.4,1.2,0,1.6l0,0c0.4,0.5,1.1,0.5,1.6,0.1l27-21.5c1.7-1.4,2-3.9,0.5-5.6
			l0,0C443.9,355.7,441.4,355.7,439.8,357.3z"/>
	</g>
</g>
<g>
	<path class="st30" d="M458.9,123.5c-5,0.5-8.9,2.4-11.7,5.9c-2.8,3.5-4,7.7-3.5,12.7c0.5,5,2.4,9,5.9,11.9
		c3.5,2.9,7.6,4.2,12.5,3.7c5-0.5,8.9-2.5,11.8-6c2.9-3.5,4-7.8,3.6-12.8c-0.5-5-2.4-8.9-5.9-11.8
		C468.1,124.3,463.9,123.1,458.9,123.5z M412.6,66.5l27.1-2.4c-1-11.7,3.5-18.1,13.3-19c9-0.9,13.8,2.7,14.6,10.8
		c0.4,3.7-0.3,7-1.9,9.8c-1.6,2.9-4.1,6.3-7.6,10.2c-3.1,3.6-5.6,6.8-7.6,9.6c-1.9,2.8-3.5,6.2-4.6,10.3c-1.1,4.1-1.5,8.8-1,14
		l26.3-2.5c-0.5-4.9,0.4-9.2,2.6-12.9c2.2-3.7,5.7-8.2,10.5-13.5c5.6-5.8,9.7-11.2,12.4-16.1c2.7-4.9,3.7-10.9,3.1-17.8
		c-1-10.9-5.7-19.1-13.9-24.4c-8.2-5.3-19-7.4-32.3-6.1c-14.1,1.3-24.8,6.4-32,15.2C414.4,40.6,411.4,52.2,412.6,66.5z"/>
</g>
</svg>
